<?xml version="1.0" encoding="utf-8"?>
<!-- Generator: Adobe Illustrator 22.1.0, SVG Export Plug-In . SVG Version: 6.00 Build 0)  -->
<svg version="1.1" id="Слой_1" xmlns="http://www.w3.org/2000/svg" xmlns:xlink="http://www.w3.org/1999/xlink" x="0px" y="0px"
	 viewBox="0 0 172 305.5" style="enable-background:new 0 0 172 305.5;" width="14px" xml:space="preserve">
<style type="text/css">
	.st0{fill:none;stroke:#6f6f6f;stroke-width:12;stroke-linecap:round;stroke-linejoin:round;stroke-miterlimit:10;}
	.st1{fill:none;stroke:#6f6f6f;stroke-width:8;stroke-linecap:round;stroke-linejoin:round;stroke-miterlimit:10;}
</style>
<g>
	<path class="st0" d="M6,86C6,41.8,41.8,6,86,6s80,35.8,80,80"/>
	<path class="st0" d="M6,86"/>
	<path class="st0" d="M51.3,230.6"/>
	<path class="st0" d="M166,88.3"/>
	<path class="st0" d="M121.5,230.6"/>
	<path class="st0" d="M6,86c0,15.3,4.8,37.7,20.2,66.1C38.4,174.5,40.6,205.2,41,217c0.1,3.2,1.4,6.3,3.6,8.7l3.2,3.5
		c2.3,2.5,3.6,5.8,3.6,9.2v37.2c0,4.1,1.7,8.1,4.8,10.9l14.5,9.1c2.8,2.6,6.4,4,10.2,4h9.9c4,0,7.8-1.6,10.6-4.4l14.9-10.5
		c2.8-2.8,4.4-6.6,4.4-10.5l0.1-33.5c0-3.4,1.3-6.6,3.6-9.1l3.2-3.5c2.2-2.4,3.5-5.5,3.6-8.7c0.4-11.8,2.5-42.4,14.7-64.9
		C161.1,126,166,103.6,166,88.3"/>
	<path class="st1" d="M14,125.2c0,0,65.6,13.6,144.9,0"/>
	<path class="st1" d="M51.3,251.4c0,0,31.8,6.6,70.2,0"/>
	<path class="st1" d="M51.3,266.4c0,0,31.8,6.6,70.2,0"/>
	<path class="st1" d="M51.3,281.5c0,0,31.8,6.6,70.2,0"/>
	<path class="st0" d="M48.9,230.6c0,0,38.1,11.2,75.3,0"/>
</g>
</svg>
